<?xml version="1.0" encoding="UTF-8"?>
<!DOCTYPE svg PUBLIC "-//W3C//DTD SVG 1.0//EN" "http://www.w3.org/TR/2001/REC-SVG-20010904/DTD/svg10.dtd">
<!-- Creator: CorelDRAW 2019 (64-Bit) -->
<svg xmlns="http://www.w3.org/2000/svg" xml:space="preserve" width="319px" height="120px" version="1.0" style="shape-rendering:geometricPrecision; text-rendering:geometricPrecision; image-rendering:optimizeQuality; fill-rule:evenodd; clip-rule:evenodd"
viewBox="0 0 228.24 85.74"
 xmlns:xlink="http://www.w3.org/1999/xlink"
 xmlns:xodm="http://www.corel.com/coreldraw/odm/2003">
 <defs>
  <style type="text/css">
   <![CDATA[
    .str0 {stroke:#EF7F1A;stroke-width:0.14;stroke-miterlimit:22.9256}
    .fil0 {fill:#EF7F1A}
    .fil1 {fill:#EF7F1A;fill-rule:nonzero}
   ]]>
  </style>
 </defs>
 <g id="Слой_x0020_1">
  <metadata id="CorelCorpID_0Corel-Layer"/>
  <path class="fil0" d="M27.29 42.94c4.37,1.62 8.84,1.81 13.46,0.04l0.21 -4.64c-3.95,1.94 -8.56,1.57 -12.7,0.03l4.68 -32.86c0.87,-7.52 10.88,-6.98 10.94,-0.6l-1.78 38.03c6.78,11.9 11.53,23.8 14.01,35.7 -10,7.72 -26.2,5.55 -35.67,7.1 -0.28,-4.65 1.81,-7.28 -0.24,-13.03 -0.5,9.77 -5.61,7.79 -8.14,12.96 -5.64,-0.4 -7.35,-2.83 -12.06,-6.3 6.37,-13.46 12.24,-24.2 27.29,-36.43z"/>
  <path class="fil1 str0" d="M89.73 62.84l-27.6 0 0 -24.97 3.23 0 0 22.09 8.96 0 0 -22.09 3.21 0 0 22.09 8.97 0 0 -22.09 3.23 0 0 24.97zm6.09 0l0 -17.83 8.01 0c1.8,0 3.21,0.39 4.23,1.19 1.01,0.79 1.52,1.85 1.52,3.17 0,2.28 -1.14,3.68 -3.43,4.18 2.74,0.37 4.11,1.75 4.11,4.13 0,1.48 -0.57,2.72 -1.72,3.69 -1.14,0.98 -2.54,1.47 -4.2,1.47l-8.52 0zm3.16 -15.28l0 4.86 4.09 0c2.23,0 3.35,-0.86 3.35,-2.59 0,-1.52 -1,-2.27 -3.01,-2.27l-4.43 0zm0 7.39l0 5.34 4.73 0c2.25,0 3.37,-0.91 3.37,-2.72 0,-1.74 -1.24,-2.62 -3.74,-2.62l-4.36 0zm16.34 -8.7c1.77,-1.1 3.82,-1.65 6.14,-1.65 4.3,0 6.45,2.25 6.45,6.76l0 11.48 -3.13 0 0 -2.76 -0.08 0c-1.24,2.12 -3.06,3.18 -5.46,3.18 -1.74,0 -3.11,-0.47 -4.13,-1.41 -1.02,-0.93 -1.53,-2.19 -1.53,-3.78 0,-3.34 1.97,-5.27 5.92,-5.82l5.28 -0.74c0,-2.91 -1.2,-4.37 -3.61,-4.37 -2.14,0 -4.09,0.72 -5.85,2.16l0 -3.05zm5.29 8.21c-1.47,0.19 -2.47,0.56 -3.02,1.1 -0.56,0.53 -0.83,1.28 -0.83,2.25 0,0.85 0.29,1.54 0.9,2.08 0.6,0.54 1.4,0.8 2.38,0.8 1.38,0 2.51,-0.48 3.4,-1.44 0.9,-0.97 1.34,-2.19 1.34,-3.65l0 -1.71 -4.17 0.57zm26.56 -15.38c-0.52,0.37 -1.28,0.64 -2.29,0.81 -2.68,0.39 -4.51,0.77 -5.49,1.11 -0.97,0.34 -1.8,1.07 -2.47,2.17 -0.67,1.1 -1.11,2.82 -1.31,5.18l0.08 0c1.39,-1.95 3.35,-2.93 5.88,-2.93 2.36,0 4.25,0.8 5.7,2.41 1.44,1.61 2.17,3.73 2.17,6.34 0,2.72 -0.77,4.91 -2.31,6.58 -1.54,1.67 -3.59,2.51 -6.15,2.51 -2.77,0 -4.91,-0.98 -6.41,-2.94 -1.5,-1.95 -2.25,-4.73 -2.25,-8.35 0,-2.82 0.28,-5.2 0.83,-7.14 0.56,-1.94 1.3,-3.4 2.23,-4.38 0.94,-0.98 1.99,-1.65 3.17,-2.03 1.17,-0.38 3.22,-0.82 6.13,-1.32 1.12,-0.26 1.95,-0.55 2.49,-0.87l0 2.85zm-11.59 12.2c0,2.01 0.03,3.36 0.12,4.05 0.08,0.7 0.35,1.5 0.81,2.41 0.46,0.92 1.09,1.63 1.89,2.14 0.79,0.51 1.67,0.77 2.64,0.77 1.5,0 2.73,-0.58 3.71,-1.73 0.98,-1.15 1.47,-2.63 1.47,-4.45 0,-1.95 -0.49,-3.52 -1.47,-4.7 -0.98,-1.17 -2.29,-1.76 -3.94,-1.76 -2.31,0 -4.05,1.09 -5.23,3.27zm21.48 9.04l0 10.72 -3.16 0 0 -26.03 3.16 0 0 3.08 0.06 0c1.4,-2.33 3.44,-3.49 6.13,-3.49 2.27,0 4.06,0.79 5.36,2.39 1.29,1.59 1.94,3.73 1.94,6.42 0,2.96 -0.73,5.35 -2.2,7.15 -1.47,1.8 -3.44,2.7 -5.92,2.7 -2.29,0 -4.06,-0.98 -5.31,-2.94l-0.06 0zm-0.02 -4.83c0,1.45 0.47,2.67 1.4,3.67 0.94,0.99 2.11,1.49 3.52,1.49 1.67,0 2.99,-0.65 3.93,-1.94 0.94,-1.29 1.42,-3.07 1.42,-5.35 0,-1.92 -0.44,-3.43 -1.32,-4.52 -0.88,-1.09 -2.09,-1.64 -3.61,-1.64 -1.56,0 -2.84,0.56 -3.84,1.67 -1,1.1 -1.5,2.52 -1.5,4.25l0 2.37zm29.53 -10.74c1.41,0 2.58,0.56 3.51,1.68 0.93,1.12 1.4,2.67 1.4,4.67 0,3.17 -1.12,6.03 -3.36,8.56 -2.24,2.53 -4.6,3.79 -7.1,3.79 -1.53,0 -2.77,-0.49 -3.71,-1.5 -0.94,-1 -1.41,-2.38 -1.41,-4.11 0,-3 0.86,-5.78 2.58,-8.34 2.17,-3.17 4.87,-4.75 8.09,-4.75zm-1.83 1.63c-1.22,0 -2.39,0.87 -3.53,2.61 -1.14,1.74 -1.7,4.14 -1.7,7.2 0,1.87 0.35,3.33 1.05,4.41 0.51,0.79 1.2,1.18 2.06,1.18 1.19,0 2.29,-0.75 3.28,-2.24 1.25,-1.92 1.88,-4.32 1.88,-7.19 0,-2.15 -0.28,-3.68 -0.86,-4.6 -0.58,-0.92 -1.31,-1.37 -2.18,-1.37zm9.48 -0.22l5.14 0c0.84,-3.58 1.81,-6.24 2.89,-8 1.1,-1.74 2.51,-3.12 4.26,-4.13 1.74,-1.01 3.4,-1.51 4.94,-1.51 0.88,0 1.54,0.17 1.98,0.52 0.44,0.34 0.66,0.74 0.66,1.22 0,0.43 -0.14,0.79 -0.44,1.08 -0.3,0.29 -0.7,0.43 -1.19,0.43 -0.5,0 -1.44,-0.14 -2.83,-0.45 -0.69,-0.13 -1.23,-0.21 -1.61,-0.21 -0.95,0 -1.8,0.58 -2.56,1.75 -0.76,1.16 -1.36,2.74 -1.82,4.73l-1.13 4.57 5.72 0 -0.34 1.54 -5.75 0 -3.38 13.72c-1.05,4.17 -2.72,7.32 -5.02,9.46 -2.3,2.15 -4.79,3.23 -7.48,3.23 -0.9,0 -1.59,-0.18 -2.06,-0.53 -0.46,-0.35 -0.69,-0.77 -0.69,-1.29 0,-0.44 0.16,-0.79 0.48,-1.05 0.32,-0.26 0.78,-0.39 1.39,-0.39 0.3,0 0.74,0.03 1.32,0.11 1.01,0.13 1.97,0.2 2.89,0.2 1.41,0 2.45,-0.34 3.09,-1.01 0.64,-0.67 1.29,-2.29 1.93,-4.9l4.36 -17.55 -5.13 0 0.38 -1.54zm14.08 0l5.13 0c0.85,-3.58 1.82,-6.24 2.9,-8 1.09,-1.74 2.51,-3.12 4.25,-4.13 1.75,-1.01 3.4,-1.51 4.95,-1.51 0.87,0 1.53,0.17 1.97,0.52 0.45,0.34 0.67,0.74 0.67,1.22 0,0.43 -0.15,0.79 -0.45,1.08 -0.3,0.29 -0.69,0.43 -1.18,0.43 -0.51,0 -1.44,-0.14 -2.84,-0.45 -0.68,-0.13 -1.22,-0.21 -1.6,-0.21 -0.95,0 -1.8,0.58 -2.56,1.75 -0.76,1.16 -1.37,2.74 -1.82,4.73l-1.13 4.57 5.72 0 -0.35 1.54 -5.75 0 -3.38 13.72c-1.04,4.17 -2.71,7.32 -5.02,9.46 -2.29,2.15 -4.79,3.23 -7.48,3.23 -0.9,0 -1.58,-0.18 -2.05,-0.53 -0.46,-0.35 -0.7,-0.77 -0.7,-1.29 0,-0.44 0.16,-0.79 0.49,-1.05 0.32,-0.26 0.78,-0.39 1.38,-0.39 0.3,0 0.74,0.03 1.33,0.11 1.01,0.13 1.97,0.2 2.88,0.2 1.42,0 2.45,-0.34 3.09,-1.01 0.65,-0.67 1.29,-2.29 1.94,-4.9l4.35 -17.55 -5.12 0 0.38 -1.54z"/>
 </g>
</svg>
